<mxfile host="app.diagrams.net" modified="2023-08-02T15:51:41.524Z" agent="Mozilla/5.0 (Windows NT 10.0; Win64; x64) AppleWebKit/537.36 (KHTML, like Gecko) Chrome/115.0.0.0 Safari/537.36 Edg/115.0.1901.188" etag="NcGjl52ZyNLZJSQ9H0BZ" version="21.6.5" type="github" pages="2">
  <diagram name="introduction" id="gTU_fiC9uCinztlKtNxD">
    <mxGraphModel dx="994" dy="589" grid="1" gridSize="10" guides="1" tooltips="1" connect="1" arrows="1" fold="1" page="1" pageScale="1" pageWidth="827" pageHeight="1169" math="0" shadow="0">
      <root>
        <mxCell id="0" />
        <mxCell id="1" parent="0" />
        <mxCell id="pGVCFB-6JdNTMlc1Q6uC-3" value="" style="edgeStyle=orthogonalEdgeStyle;rounded=0;orthogonalLoop=1;jettySize=auto;html=1;" parent="1" source="pGVCFB-6JdNTMlc1Q6uC-1" target="pGVCFB-6JdNTMlc1Q6uC-2" edge="1">
          <mxGeometry relative="1" as="geometry" />
        </mxCell>
        <mxCell id="pGVCFB-6JdNTMlc1Q6uC-1" value="connection" style="rounded=1;whiteSpace=wrap;html=1;" parent="1" vertex="1">
          <mxGeometry x="180" y="130" width="120" height="60" as="geometry" />
        </mxCell>
        <mxCell id="pGVCFB-6JdNTMlc1Q6uC-5" value="" style="edgeStyle=orthogonalEdgeStyle;rounded=0;orthogonalLoop=1;jettySize=auto;html=1;" parent="1" source="pGVCFB-6JdNTMlc1Q6uC-2" target="pGVCFB-6JdNTMlc1Q6uC-4" edge="1">
          <mxGeometry relative="1" as="geometry" />
        </mxCell>
        <mxCell id="pGVCFB-6JdNTMlc1Q6uC-2" value="stream" style="whiteSpace=wrap;html=1;rounded=1;" parent="1" vertex="1">
          <mxGeometry x="180" y="270" width="120" height="60" as="geometry" />
        </mxCell>
        <mxCell id="pGVCFB-6JdNTMlc1Q6uC-7" value="" style="edgeStyle=orthogonalEdgeStyle;rounded=0;orthogonalLoop=1;jettySize=auto;html=1;" parent="1" source="pGVCFB-6JdNTMlc1Q6uC-4" target="pGVCFB-6JdNTMlc1Q6uC-6" edge="1">
          <mxGeometry relative="1" as="geometry" />
        </mxCell>
        <mxCell id="pGVCFB-6JdNTMlc1Q6uC-4" value="packets" style="whiteSpace=wrap;html=1;rounded=1;" parent="1" vertex="1">
          <mxGeometry x="180" y="410" width="120" height="60" as="geometry" />
        </mxCell>
        <mxCell id="pGVCFB-6JdNTMlc1Q6uC-6" value="frames" style="whiteSpace=wrap;html=1;rounded=1;" parent="1" vertex="1">
          <mxGeometry x="180" y="550" width="120" height="60" as="geometry" />
        </mxCell>
      </root>
    </mxGraphModel>
  </diagram>
  <diagram id="-lDjn80aSrMv3mUM4KTd" name="Packet">
    <mxGraphModel dx="994" dy="589" grid="1" gridSize="10" guides="1" tooltips="1" connect="1" arrows="1" fold="1" page="1" pageScale="1" pageWidth="827" pageHeight="1169" math="0" shadow="0">
      <root>
        <mxCell id="0" />
        <mxCell id="1" parent="0" />
        <mxCell id="-W9dVY8GcaJ5yFOw9uhj-2" style="edgeStyle=orthogonalEdgeStyle;rounded=0;orthogonalLoop=1;jettySize=auto;html=1;exitX=1;exitY=0.5;exitDx=0;exitDy=0;" edge="1" parent="1" source="-W9dVY8GcaJ5yFOw9uhj-1">
          <mxGeometry relative="1" as="geometry">
            <mxPoint x="540" y="300" as="targetPoint" />
          </mxGeometry>
        </mxCell>
        <mxCell id="-W9dVY8GcaJ5yFOw9uhj-1" value="A complete processable unit of QUIC that can be encapsulated in a UDP datagram. One or more QUIC packets can be encapsulated in a single UDP datagram." style="rounded=1;whiteSpace=wrap;html=1;" vertex="1" parent="1">
          <mxGeometry x="250" y="90" width="270" height="60" as="geometry" />
        </mxCell>
      </root>
    </mxGraphModel>
  </diagram>
</mxfile>
